<svg width="719" height="53" viewBox="0 0 719 53" fill="none" xmlns="http://www.w3.org/2000/svg">
<path d="M24.048 9.192V1.8H0.64V41H8.368V25.88H23.6V18.488H8.368V9.192H24.048ZM36.5671 17.816V13H29.3431V41H36.5671V27.616C36.5671 21.736 41.3271 20.056 45.0791 20.504V12.44C41.5511 12.44 38.0231 14.008 36.5671 17.816ZM54.3689 29.968H75.4809C75.6489 29.016 75.7609 28.064 75.7609 27C75.7609 18.768 69.8809 12.216 61.5929 12.216C52.8009 12.216 46.8089 18.656 46.8089 27C46.8089 35.344 52.7449 41.784 62.1529 41.784C67.5289 41.784 71.7289 39.6 74.3609 35.792L68.5369 32.432C67.3049 34.056 65.0649 35.232 62.2649 35.232C58.4569 35.232 55.3769 33.664 54.3689 29.968ZM54.2569 24.368C55.0969 20.784 57.7289 18.712 61.5929 18.712C64.6169 18.712 67.6409 20.336 68.5369 24.368H54.2569ZM101.809 13V16.304C99.7933 13.728 96.8253 12.216 92.7373 12.216C85.2333 12.216 79.0733 18.656 79.0733 27C79.0733 35.344 85.2333 41.784 92.7373 41.784C96.8253 41.784 99.7933 40.272 101.809 37.696V52.2H109.033V13H101.809ZM94.0813 34.896C89.6013 34.896 86.2973 31.704 86.2973 27C86.2973 22.296 89.6013 19.104 94.0813 19.104C98.5053 19.104 101.809 22.296 101.809 27C101.809 31.704 98.5053 34.896 94.0813 34.896ZM134.12 13V28.12C134.12 32.992 131.488 35.064 127.96 35.064C124.712 35.064 122.416 33.104 122.416 29.296V13H115.192V30.192C115.192 37.64 119.84 41.784 125.776 41.784C129.528 41.784 132.44 40.384 134.12 37.864V41H141.344V13H134.12ZM154.064 29.968H175.176C175.344 29.016 175.456 28.064 175.456 27C175.456 18.768 169.576 12.216 161.288 12.216C152.496 12.216 146.504 18.656 146.504 27C146.504 35.344 152.44 41.784 161.848 41.784C167.224 41.784 171.424 39.6 174.056 35.792L168.232 32.432C167 34.056 164.76 35.232 161.96 35.232C158.152 35.232 155.072 33.664 154.064 29.968ZM153.952 24.368C154.792 20.784 157.424 18.712 161.288 18.712C164.312 18.712 167.336 20.336 168.232 24.368H153.952ZM196.067 12.216C192.315 12.216 189.403 13.616 187.723 16.136V13H180.499V41H187.723V25.88C187.723 21.008 190.355 18.936 193.883 18.936C197.131 18.936 199.427 20.896 199.427 24.704V41H206.651V23.808C206.651 16.36 202.003 12.216 196.067 12.216ZM228.836 19.944V13H222.508V5.16L215.284 7.344V13H210.412V19.944H215.284V31.592C215.284 39.152 218.7 42.12 228.836 41V34.448C224.692 34.672 222.508 34.616 222.508 31.592V19.944H228.836ZM233.929 41H241.153V0.119999H233.929V41ZM266.021 13L259.805 31.816L252.525 13H244.629L256.109 40.104C254.765 43.856 252.749 45.536 248.773 45.48V52.2C255.885 52.592 260.645 49.064 263.557 41L273.749 13H266.021ZM316.723 41H325.123L311.347 1.8H301.771L288.051 41H296.395L298.747 33.944H314.371L316.723 41ZM301.211 26.72L306.587 10.704L311.963 26.72H301.211ZM334.984 20.952C334.984 19.44 336.44 18.656 338.232 18.656C340.304 18.656 341.872 19.72 342.712 21.512L348.872 18.152C346.688 14.288 342.768 12.216 338.232 12.216C332.464 12.216 327.592 15.408 327.592 21.12C327.592 30.976 342.04 28.736 342.04 32.824C342.04 34.448 340.472 35.232 338.176 35.232C335.376 35.232 333.472 33.888 332.688 31.592L326.416 35.12C328.432 39.432 332.576 41.784 338.176 41.784C344.168 41.784 349.432 38.872 349.432 32.824C349.432 22.52 334.984 25.096 334.984 20.952ZM379.893 41L368.301 26.832L379.557 13H370.933L361.301 25.32V1.8H354.077V41H361.301V28.288L371.493 41H379.893ZM387.58 29.968H408.692C408.86 29.016 408.972 28.064 408.972 27C408.972 18.768 403.092 12.216 394.804 12.216C386.012 12.216 380.02 18.656 380.02 27C380.02 35.344 385.956 41.784 395.364 41.784C400.74 41.784 404.94 39.6 407.572 35.792L401.748 32.432C400.516 34.056 398.276 35.232 395.476 35.232C391.668 35.232 388.588 33.664 387.58 29.968ZM387.468 24.368C388.308 20.784 390.94 18.712 394.804 18.712C397.828 18.712 400.852 20.336 401.748 24.368H387.468ZM435.02 1.8V16.304C433.004 13.728 430.036 12.216 425.948 12.216C418.444 12.216 412.284 18.656 412.284 27C412.284 35.344 418.444 41.784 425.948 41.784C430.036 41.784 433.004 40.272 435.02 37.696V41H442.244V1.8H435.02ZM427.292 34.896C422.812 34.896 419.508 31.704 419.508 27C419.508 22.296 422.812 19.104 427.292 19.104C431.716 19.104 435.02 22.296 435.02 27C435.02 31.704 431.716 34.896 427.292 34.896ZM502.107 21.4C502.107 9.92 492.979 1.016 481.723 1.016C470.467 1.016 461.395 9.92 461.395 21.4C461.395 32.824 470.467 41.784 481.723 41.784C485.307 41.784 488.667 40.888 491.579 39.264L495.835 43.688L501.323 38.816L497.291 34.616C500.315 31.088 502.107 26.496 502.107 21.4ZM481.723 34.224C474.667 34.224 469.067 28.904 469.067 21.4C469.067 13.84 474.667 8.52 481.723 8.52C488.779 8.52 494.379 13.84 494.379 21.4C494.379 24.368 493.483 27 492.027 29.072L485.139 21.904L479.651 26.776L486.091 33.496C484.747 33.944 483.235 34.224 481.723 34.224ZM526.229 13V28.12C526.229 32.992 523.597 35.064 520.069 35.064C516.821 35.064 514.525 33.104 514.525 29.296V13H507.301V30.192C507.301 37.64 511.949 41.784 517.885 41.784C521.637 41.784 524.549 40.384 526.229 37.864V41H533.453V13H526.229ZM546.174 29.968H567.286C567.454 29.016 567.566 28.064 567.566 27C567.566 18.768 561.686 12.216 553.398 12.216C544.606 12.216 538.614 18.656 538.614 27C538.614 35.344 544.55 41.784 553.958 41.784C559.334 41.784 563.534 39.6 566.166 35.792L560.342 32.432C559.11 34.056 556.87 35.232 554.07 35.232C550.262 35.232 547.182 33.664 546.174 29.968ZM546.062 24.368C546.902 20.784 549.534 18.712 553.398 18.712C556.422 18.712 559.446 20.336 560.342 24.368H546.062ZM578.179 20.952C578.179 19.44 579.635 18.656 581.427 18.656C583.499 18.656 585.067 19.72 585.907 21.512L592.067 18.152C589.883 14.288 585.963 12.216 581.427 12.216C575.659 12.216 570.787 15.408 570.787 21.12C570.787 30.976 585.235 28.736 585.235 32.824C585.235 34.448 583.667 35.232 581.371 35.232C578.571 35.232 576.667 33.888 575.883 31.592L569.611 35.12C571.627 39.432 575.771 41.784 581.371 41.784C587.363 41.784 592.627 38.872 592.627 32.824C592.627 22.52 578.179 25.096 578.179 20.952ZM612.468 19.944V13H606.14V5.16L598.916 7.344V13H594.044V19.944H598.916V31.592C598.916 39.152 602.332 42.12 612.468 41V34.448C608.324 34.672 606.14 34.616 606.14 31.592V19.944H612.468ZM621.146 9.64C623.61 9.64 625.626 7.624 625.626 5.216C625.626 2.808 623.61 0.735998 621.146 0.735998C618.738 0.735998 616.722 2.808 616.722 5.216C616.722 7.624 618.738 9.64 621.146 9.64ZM617.562 41H624.786V13H617.562V41ZM644.726 41.784C652.958 41.784 659.566 35.344 659.566 27C659.566 18.656 652.958 12.216 644.726 12.216C636.494 12.216 629.942 18.656 629.942 27C629.942 35.344 636.494 41.784 644.726 41.784ZM644.726 34.728C640.47 34.728 637.166 31.536 637.166 27C637.166 22.464 640.47 19.272 644.726 19.272C649.038 19.272 652.342 22.464 652.342 27C652.342 31.536 649.038 34.728 644.726 34.728ZM680.216 12.216C676.464 12.216 673.552 13.616 671.872 16.136V13H664.648V41H671.872V25.88C671.872 21.008 674.504 18.936 678.032 18.936C681.28 18.936 683.576 20.896 683.576 24.704V41H690.8V23.808C690.8 16.36 686.152 12.216 680.216 12.216ZM703.632 20.952C703.632 19.44 705.088 18.656 706.88 18.656C708.952 18.656 710.52 19.72 711.36 21.512L717.52 18.152C715.336 14.288 711.416 12.216 706.88 12.216C701.112 12.216 696.24 15.408 696.24 21.12C696.24 30.976 710.688 28.736 710.688 32.824C710.688 34.448 709.12 35.232 706.824 35.232C704.024 35.232 702.12 33.888 701.336 31.592L695.064 35.12C697.08 39.432 701.224 41.784 706.824 41.784C712.816 41.784 718.08 38.872 718.08 32.824C718.08 22.52 703.632 25.096 703.632 20.952Z" fill="url(#paint0_linear)"/>
<defs>
<linearGradient id="paint0_linear" x1="22.2734" y1="-6.87667" x2="751.208" y2="20.6768" gradientUnits="userSpaceOnUse">
<stop stop-color="#BF79D5"/>
<stop offset="0.136036" stop-color="#5CA1AE"/>
<stop offset="0.250743" stop-color="#C3E4D5"/>
<stop offset="0.468267" stop-color="#D8F5AB"/>
<stop offset="0.634183" stop-color="#F1F6A7"/>
<stop offset="0.796481" stop-color="#F4CF92"/>
<stop offset="1" stop-color="#EF8A93"/>
</linearGradient>
</defs>
</svg>
